<svg width="11" height="14" viewBox="0 0 11 14" fill="none" xmlns="http://www.w3.org/2000/svg">
<path d="M8.7825 2.18766H7.125V0.253906L8.7825 2.18766Z" fill="#E71837"/>
<path d="M4.45125 8.8725L3.4425 12.7006L6.72375 11.5281L9 8.86812V12.6875C9 13.4094 8.49375 14 7.875 14H1.125C0.50625 14 0 13.4094 0 12.6875V1.3125C0 0.590625 0.50625 0 1.125 0H6.375V2.625C6.375 2.86562 6.54375 3.0625 6.75 3.0625H9V3.75375C8.8275 3.8325 8.67 3.955 8.53875 4.10813L4.45125 8.8725Z" fill="#E71837"/>
<path d="M10.2799 6.13806L9.90117 6.57993L6.32742 10.7537L4.57617 11.3793L5.11617 9.33618L9.06867 4.72493C9.36117 4.38368 9.83742 4.38368 10.1299 4.72493L10.2799 4.89993C10.5762 5.24118 10.5762 5.79681 10.2799 6.13806Z" fill="#E71837"/>
</svg>
