<svg width="113" height="94" viewBox="0 0 113 94" fill="none" xmlns="http://www.w3.org/2000/svg">
<path d="M70.0203 0H112.033L67.6294 93.9298L40.1335 61.9937L70.0203 0Z" fill="#B9B7BA"/>
<path d="M0 33.1322H42.4342L67.6295 93.9304H25.1953L0 33.1322Z" fill="#E64E43"/>
<path d="M26.4713 41.3286H36.7182L40.1338 49.5261H29.8869L26.4713 41.3286Z" fill="white"/>
<path d="M32.7905 56.6996H43.0374L46.453 64.8971H36.2062L32.7905 56.6996Z" fill="white"/>
<path d="M38.9387 71.7289H49.1856L52.6012 79.9264H42.3544L38.9387 71.7289Z" fill="white"/>
<path d="M11.2714 41.3286H21.5183L24.9339 49.5261H14.6871L11.2714 41.3286Z" fill="white"/>
<path d="M17.7618 56.6996H28.0087L31.4243 64.8971H21.1774L17.7618 56.6996Z" fill="white"/>
<path d="M23.9105 71.7289H34.1574L37.573 79.9264H27.3262L23.9105 71.7289Z" fill="white"/>
</svg>
