<svg width="44" height="44" viewBox="0 0 44 44" fill="none" xmlns="http://www.w3.org/2000/svg">
<g filter="url(#filter0_d_515_2316)">
<rect x="4" y="3" width="36" height="36" rx="4" fill="#FFEEEB"/>
</g>
<path d="M30.8419 15.9925C30.7404 15.9925 30.643 15.9531 30.5712 15.8828C30.4995 15.8126 30.4591 15.7173 30.4591 15.6179C30.4583 14.9227 30.1758 14.2562 29.6735 13.7646C29.1712 13.273 28.4903 12.9965 27.7799 12.9957H24.0801V14.619C24.0801 14.9486 23.6749 15.1155 23.433 14.8897L20.6262 12.2675C20.5888 12.2326 20.559 12.1906 20.5387 12.144C20.5183 12.0975 20.5078 12.0474 20.5078 11.9968C20.5078 11.9462 20.5183 11.8961 20.5387 11.8496C20.559 11.803 20.5888 11.761 20.6262 11.7261L23.433 9.1039C23.6759 8.87715 24.0801 9.04596 24.0801 9.37461V10.9979H27.2696C29.4502 10.9979 31.2246 12.7345 31.2246 14.8687V15.6179C31.2246 15.7173 31.1843 15.8126 31.1125 15.8828C31.0407 15.9531 30.9434 15.9925 30.8419 15.9925Z" fill="#EA2C36"/>
<path d="M19.1445 32.6252V31.002H15.955C13.7744 31.002 12 29.2653 12 27.1311V26.3819C12 26.2826 12.0403 26.1873 12.1121 26.117C12.1839 26.0468 12.2812 26.0073 12.3827 26.0073C12.4843 26.0073 12.5816 26.0468 12.6534 26.117C12.7252 26.1873 12.7655 26.2826 12.7655 26.3819C12.7663 27.0771 13.0488 27.7436 13.5511 28.2352C14.0534 28.7268 14.7344 29.0033 15.4447 29.0041H19.1445V27.3809C19.1446 27.3075 19.1666 27.2358 19.2079 27.1746C19.2492 27.1134 19.3079 27.0654 19.3768 27.0366C19.4457 27.0078 19.5218 26.9994 19.5955 27.0124C19.6692 27.0255 19.7374 27.0595 19.7916 27.1101L22.5984 29.7323C22.6358 29.7673 22.6656 29.8093 22.686 29.8558C22.7063 29.9023 22.7168 29.9524 22.7168 30.003C22.7168 30.0537 22.7063 30.1037 22.686 30.1503C22.6656 30.1968 22.6358 30.2388 22.5984 30.2738L19.7916 32.8959C19.5482 33.1227 19.1445 32.9539 19.1445 32.6252Z" fill="#EA2C36"/>
<path d="M18.5161 18.3717C18.5179 18.3943 18.5199 18.4168 18.5221 18.4392C18.6755 20.1383 19.6909 21.451 20.9214 21.451C22.1518 21.451 23.1675 20.1383 23.3208 18.4392C23.3231 18.4167 23.3251 18.3942 23.3268 18.3717C23.3447 18.2457 23.354 18.1186 23.3545 17.9914C23.3545 17.8626 23.3452 17.7352 23.3268 17.6113C23.1488 16.4071 22.1398 15.4846 20.9214 15.4846C19.7029 15.4846 18.6939 16.4071 18.5159 17.6113C18.479 17.8635 18.4791 18.1196 18.5161 18.3717Z" fill="#EA2C36"/>
<path d="M23.0305 21.1417C23.025 21.141 23.0192 21.1408 23.0137 21.1395C22.9687 21.1338 22.9236 21.1289 22.8785 21.1248C22.8783 21.1293 22.8769 21.1337 22.8769 21.1382C22.8763 21.1514 22.8738 21.1638 22.8723 21.1773C22.8641 21.251 22.8415 21.3226 22.8064 21.3916C22.5699 21.9745 21.8045 23.0786 21.3539 23.7058L21.261 22.403C21.3945 22.3345 21.5048 22.2294 21.5784 22.1006C21.6316 22.0118 21.6606 21.9112 21.6624 21.8083C21.6624 21.8083 21.3262 21.9541 20.9833 21.9541C20.9638 21.9541 20.944 21.9539 20.9245 21.9526C20.905 21.9538 20.8854 21.9543 20.8658 21.9541C20.5227 21.9541 20.1866 21.8083 20.1866 21.8083C20.1866 21.9099 20.2185 22.0097 20.2709 22.1006C20.3445 22.2293 20.4548 22.3344 20.5883 22.403L20.4954 23.7058C20.0445 23.0786 19.2794 21.9745 19.0426 21.3916C19.0078 21.3246 18.9855 21.252 18.9768 21.1773C18.975 21.1638 18.9728 21.1514 18.9721 21.1382C18.9721 21.1337 18.9708 21.1293 18.9706 21.1248C18.9254 21.1291 18.8801 21.1339 18.8354 21.1395C18.8298 21.1408 18.8236 21.141 18.8185 21.1417C17.2523 21.3549 16.0469 22.6707 16.0469 24.262C16.0469 26.0021 17.4883 25.9978 19.2663 25.9978H22.5821C24.3601 25.9978 25.8013 26.0021 25.8013 24.262C25.8015 22.6707 24.5966 21.3549 23.0305 21.1417Z" fill="#EA2C36"/>
<defs>
<filter id="filter0_d_515_2316" x="0" y="0" width="44" height="44" filterUnits="userSpaceOnUse" color-interpolation-filters="sRGB">
<feFlood flood-opacity="0" result="BackgroundImageFix"/>
<feColorMatrix in="SourceAlpha" type="matrix" values="0 0 0 0 0 0 0 0 0 0 0 0 0 0 0 0 0 0 127 0" result="hardAlpha"/>
<feOffset dy="1"/>
<feGaussianBlur stdDeviation="2"/>
<feComposite in2="hardAlpha" operator="out"/>
<feColorMatrix type="matrix" values="0 0 0 0 0 0 0 0 0 0 0 0 0 0 0 0 0 0 0.14 0"/>
<feBlend mode="normal" in2="BackgroundImageFix" result="effect1_dropShadow_515_2316"/>
<feBlend mode="normal" in="SourceGraphic" in2="effect1_dropShadow_515_2316" result="shape"/>
</filter>
</defs>
</svg>
