<svg width="44" height="44" viewBox="0 0 44 44" fill="none" xmlns="http://www.w3.org/2000/svg">
<g filter="url(#filter0_d_515_2308)">
<rect x="4" y="3" width="36" height="36" rx="4" fill="#FFEEEB"/>
</g>
<path fill-rule="evenodd" clip-rule="evenodd" d="M31.7352 17.049V16.0909C31.7352 15.4399 31.4709 14.8156 31.0006 14.3553C30.5303 13.895 29.8924 13.6364 29.2273 13.6364H20.5299C20.0978 12.9036 19.3925 12.3631 18.562 12.1285C18.5241 12.1179 18.4856 12.1097 18.4466 12.1039L17.7511 12.0082C17.7123 12.0026 17.6732 11.9999 17.6341 12H12.5079C11.8425 12 11.2046 12.2586 10.7348 12.7192C10.5018 12.947 10.3169 13.2175 10.1908 13.5152C10.0647 13.813 9.99989 14.1322 10 14.4546V27.5455C10 28.1967 10.2642 28.821 10.7348 29.2808C10.9675 29.5089 11.2439 29.6898 11.5482 29.8132C11.8524 29.9366 12.1786 30.0001 12.5079 30H30.8992C31.5643 30 32.2022 29.7414 32.6726 29.2811C33.1429 28.8208 33.4071 28.1964 33.4071 27.5455V19.3636C33.4072 18.856 33.2465 18.3608 32.947 17.9462C32.6476 17.5317 32.2242 17.2182 31.7352 17.049ZM20.8676 21.7994V26.8001C20.8676 27.0171 20.9557 27.2252 21.1124 27.3786C21.2692 27.5321 21.4818 27.6183 21.7036 27.6183C21.9253 27.6183 22.1379 27.5321 22.2947 27.3786C22.4514 27.2252 22.5395 27.0171 22.5395 26.8001V21.7994L24.4631 23.6403C24.6217 23.792 24.8354 23.8757 25.0572 23.8732C25.2789 23.8707 25.4906 23.782 25.6456 23.6268C25.8005 23.4715 25.8861 23.2624 25.8836 23.0453C25.881 22.8283 25.7904 22.6211 25.6318 22.4695L22.8722 19.83C22.5599 19.5312 22.1404 19.3638 21.7036 19.3638C21.2667 19.3638 20.8473 19.5312 20.5349 19.83L17.7753 22.4695C17.6167 22.6211 17.5261 22.8283 17.5235 23.0453C17.521 23.2624 17.6066 23.4715 17.7615 23.6268C17.9165 23.782 18.1282 23.8707 18.3499 23.8732C18.5717 23.8757 18.7854 23.792 18.944 23.6403L20.8676 21.7994ZM21.36 15.2727L21.9527 16.4517C22.0215 16.5889 22.1283 16.7045 22.2608 16.7853C22.3934 16.8661 22.5464 16.909 22.7025 16.9091H30.0632V16.0909C30.0632 15.8739 29.9752 15.6658 29.8184 15.5124C29.6616 15.3589 29.449 15.2727 29.2273 15.2727H21.36Z" fill="#EA2C36"/>
<defs>
<filter id="filter0_d_515_2308" x="0" y="0" width="44" height="44" filterUnits="userSpaceOnUse" color-interpolation-filters="sRGB">
<feFlood flood-opacity="0" result="BackgroundImageFix"/>
<feColorMatrix in="SourceAlpha" type="matrix" values="0 0 0 0 0 0 0 0 0 0 0 0 0 0 0 0 0 0 127 0" result="hardAlpha"/>
<feOffset dy="1"/>
<feGaussianBlur stdDeviation="2"/>
<feComposite in2="hardAlpha" operator="out"/>
<feColorMatrix type="matrix" values="0 0 0 0 0 0 0 0 0 0 0 0 0 0 0 0 0 0 0.14 0"/>
<feBlend mode="normal" in2="BackgroundImageFix" result="effect1_dropShadow_515_2308"/>
<feBlend mode="normal" in="SourceGraphic" in2="effect1_dropShadow_515_2308" result="shape"/>
</filter>
</defs>
</svg>
